#!OML:ASF H:\ManfredObstacles\Project 1\Capture day 2\Session 1\male.ASF
:FULLY-SPECIFIED
:DEGREES
294
root 1.68678 7.72599 1.9251 -112.192 5.39608 178.402
lowerback 18.2974 0.163255 -4.83304
upperback 9.99964 1.02832 -3.48613
thorax 0.54551 0.990042 -1.12725
lowerneck -24.7201 0.91813 5.28171
upperneck 9.4762 -1.11488 2.51607
head 6.84783 -0.166868 -0.151834
rclavicle -6.36111e-015 5.22307e-014
rhumerus 4.48129 2.44574 -84.1898
rradius 70.2269
rwrist 43.9233
rhand -56.4756 -11.8871
rfingers 7.12502
rthumb -28.7907 -39.6867
lclavicle -6.36111e-015 5.22307e-014
lhumerus 23.0642 0.247425 59.0508
lradius 92.2012
lwrist -35.6642
lhand -45.7162 28.142
lfingers 7.12502
lthumb -18.4727 57.2849
rfemur -31.3496 -3.10654 19.8539
rtibia 105.063
rfoot 4.7126 -17.3651
rtoes -23.2048
lfemur -92.8604 11.2425 -19.3103
ltibia 140.098
lfoot -9.90289 21.6758
ltoes -18.5689
295
root 1.64674 7.76107 1.85126 -112.3 5.38206 178.916
lowerback 18.6982 0.347773 -4.79151
upperback 9.94618 1.23036 -3.2738
thorax 0.274193 1.08392 -0.973005
lowerneck -24.7832 0.894051 5.19232
upperneck 9.49415 -1.10779 2.43939
head 6.86276 -0.172064 -0.162057
rclavicle 1.11319e-014 6.4779e-014
rhumerus 4.55708 2.40793 -83.9021
rradius 69.3335
rwrist 44.2013
rhand -56.7269 -12.3242
rfingers 7.12502
rthumb -29.0307 -40.0827
lclavicle 1.11319e-014 6.4779e-014
lhumerus 26.195 1.87244 58.4039
lradius 91.5162
lwrist -35.2407
lhand -44.4325 27.652
lfingers 7.12502
lthumb -17.2375 56.9075
rfemur -31.6544 -2.66412 19.6399
rtibia 105.278
rfoot 4.06836 -17.7482
rtoes -23.4171
lfemur -91.8049 11.1473 -19.0487
ltibia 139.37
lfoot -9.88663 22.4789
ltoes -18.6116
296
root 1.6067 7.79808 1.77925 -112.399 5.36171 179.422
lowerback 19.0882 0.536857 -4.83058
upperback 9.88516 1.4244 -3.00375
thorax -0.00202328 1.16837 -0.713023
lowerneck -24.8577 0.871991 5.0864
upperneck 9.52999 -1.0849 2.31698
head 6.88505 -0.173556 -0.182773
rclavicle 1.27222e-014 -1.56543e-015
rhumerus 4.69295 2.46954 -83.5247
rradius 68.3613
rwrist 44.3552
rhand -56.9727 -12.6487
rfingers 7.12502
rthumb -29.2654 -40.3665
lclavicle 1.27222e-014 -1.56543e-015
lhumerus 29.1635 3.40538 57.8524
lradius 90.3936
lwrist -34.881
lhand -43.2331 26.8141
lfingers 7.12502
lthumb -16.0829 56.1667
rfemur -32.0201 -2.25558 19.4204
rtibia 105.508
rfoot 3.32995 -18.1061
rtoes -23.658
lfemur -90.8076 10.94 -18.7903
ltibia 138.598
lfoot -9.93676 23.1764
ltoes -18.6612
297
root 1.56668 7.83669 1.70739 -112.479 5.32817 179.898
lowerback 19.443 0.702837 -4.91047
upperback 9.81917 1.58303 -2.70483
thorax -0.267253 1.23288 -0.393738
lowerneck -24.928 0.86356 4.97712
upperneck 9.5781 -1.03613 2.15969
head 6.91076 -0.165667 -0.211257
rclavicle -1.41137e-014 3.844e-014
rhumerus 4.90084 2.63495 -83.1122
rradius 67.3166
rwrist 44.3392
rhand -57.1927 -12.8043
rfingers 7.12502
rthumb -29.4755 -40.4852
lclavicle -1.41137e-014 3.844e-014
lhumerus 31.9243 4.83373 57.3279
lradius 88.8942
lwrist -34.5992
lhand -42.0746 25.8052
lfingers 7.12502
lthumb -14.967 55.2443
rfemur -32.4445 -1.92464 19.1831
rtibia 105.742
rfoot 2.49748 -18.3995
rtoes -23.8435
lfemur -89.8697 10.6065 -18.541
ltibia 137.785
lfoot -9.97395 23.7714
ltoes -18.7391
298
root 1.5262 7.87607 1.63531 -112.542 5.28066 180.339
lowerback 19.7615 0.846565 -5.00605
upperback 9.7478 1.7118 -2.39138
thorax -0.521016 1.28188 -0.044658
lowerneck -24.9789 0.863366 4.87876
upperneck 9.63825 -0.971673 1.96718
head 6.9374 -0.152774 -0.251168
rclavicle -5.36719e-015 1.53313e-014
rhumerus 5.15899 2.85695 -82.6859
rradius 66.2169
rwrist 44.2059
rhand -57.3769 -12.811
rfingers 7.12502
rthumb -29.6513 -40.4609
lclavicle -5.36719e-015 1.53313e-014
lhumerus 34.4709 6.10872 56.8095
lradius 87.0779
lwrist -34.3863
lhand -40.9672 24.752
lfingers 7.12502
lthumb -13.9 54.2674
rfemur -32.9191 -1.6859 18.9234
rtibia 105.984
rfoot 1.60428 -18.5957
rtoes -23.9941
lfemur -88.9802 10.1777 -18.3181
ltibia 136.956
lfoot -9.95545 24.2399
ltoes -18.8096
299
root 1.48477 7.91555 1.56301 -112.598 5.2355 180.75
lowerback 20.0492 0.969187 -5.09416
upperback 9.67366 1.81718 -2.09356
thorax -0.761965 1.3208 0.28848
lowerneck -24.9923 0.870849 4.80317
upperneck 9.69585 -0.899205 1.76313
head 6.95755 -0.136625 -0.297547
rclavicle 9.54166e-015 -1.58779e-014
rhumerus 5.46087 3.08689 -82.2905
rradius 65.0717
rwrist 43.9888
rhand -57.5149 -12.7044
rfingers 7.12502
rthumb -29.783 -40.3308
lclavicle 9.54166e-015 -1.58779e-014
lhumerus 36.8274 7.21712 56.2479
lradius 85.0052
lwrist -34.2128
lhand -39.8416 23.8004
lfingers 7.12502
lthumb -12.815 53.387
rfemur -33.4377 -1.53697 18.6226
rtibia 106.244
rfoot 0.685598 -18.6951
rtoes -24.0609
lfemur -88.1119 9.69695 -18.1462
ltibia 136.136
lfoot -9.85552 24.6109
ltoes -18.8564
